<svg width="28" height="28" viewBox="0 0 28 28" fill="none" xmlns="http://www.w3.org/2000/svg">
<mask id="mask0_26448_7988" style="mask-type:alpha" maskUnits="userSpaceOnUse" x="0" y="0" width="28" height="28">
<rect width="28" height="28" fill="#D9D9D9"/>
</mask>
<g mask="url(#mask0_26448_7988)">
<path fill-rule="evenodd" clip-rule="evenodd" d="M7.98891 3H19.9224C23.2495 3 25.9113 5.7061 26 8.98891V21.9064C26 23.5922 24.6248 24.9674 22.939 24.9674H21.5194C20.3216 24.9674 19.2126 24.4794 18.4584 23.5922L16.7726 21.6846C16.6396 21.4628 16.3734 21.3741 16.1516 21.3741H11.8484C11.6266 21.3741 11.4048 21.5071 11.2274 21.6846L9.54159 23.5922C8.74307 24.4794 7.63401 24.9674 6.48059 24.9674H5.061C3.37523 24.9674 2 23.5922 2 21.9064V8.98891C2 5.7061 4.7061 3 7.98891 3ZM19.9224 5.21811H7.98891C5.90388 5.21811 4.21811 6.90388 4.12939 8.98891V21.9064C4.12939 22.35 4.52865 22.7493 4.97227 22.7493H6.39187C6.92421 22.7493 7.4122 22.5275 7.7671 22.1282L9.45287 20.2206C10.0296 19.5552 10.8725 19.1559 11.7597 19.1559H16.0628C16.9501 19.1559 17.793 19.5552 18.3697 20.2206L20.0555 22.1282C20.4104 22.5275 20.8983 22.7493 21.4307 22.7493H22.8503C23.2939 22.7493 23.6932 22.35 23.6932 21.9064V8.98891C23.6932 6.90388 22.0074 5.21811 19.9224 5.21811ZM21.9185 12.52C21.9185 14.2945 20.4546 15.7584 18.6801 15.7584C16.9056 15.7584 15.4417 14.2945 15.4417 12.52C15.4417 10.7455 16.9056 9.28152 18.6801 9.28152C20.4546 9.28152 21.9185 10.7455 21.9185 12.52ZM18.6801 11.4996C18.1034 11.4996 17.6598 11.9876 17.6598 12.52C17.6598 13.0967 18.1034 13.5403 18.6801 13.5403C19.2568 13.5403 19.7004 13.0967 19.7004 12.52C19.7004 11.9433 19.2568 11.4996 18.6801 11.4996ZM8.52113 13.4072H7.58953C6.96845 13.4072 6.48047 12.9192 6.48047 12.2982C6.48047 11.6771 6.96845 11.1891 7.58953 11.1891H8.52113V10.2575C8.52113 9.63642 9.00912 9.14844 9.63019 9.14844C10.2513 9.14844 10.7392 9.63642 10.7392 10.2575V11.1891H11.6709C12.2919 11.1891 12.7799 11.6771 12.7799 12.2982C12.7799 12.9192 12.2919 13.4072 11.6709 13.4072H10.7392V14.3388C10.7392 14.9599 10.2513 15.4479 9.63019 15.4479C9.00912 15.4479 8.52113 14.9599 8.52113 14.3388V13.4072Z" fill="#4A4A4A"/>
</g>
</svg>
