<svg width="24" height="24" viewBox="0 0 24 24" fill="none" xmlns="http://www.w3.org/2000/svg">
<mask id="mask0_247_1683" style="mask-type:alpha" maskUnits="userSpaceOnUse" x="0" y="0" width="24" height="24">
<rect width="24" height="24" fill="#D9D9D9"/>
</mask>
<g mask="url(#mask0_247_1683)">
<path d="M21.2237 1.00028C21.1459 0.995368 15.7817 1.0571 15.7817 1.0571C14.8261 1.06903 14.0604 2.02029 14.0735 2.99541C14.0852 3.9614 14.8591 4.88811 15.8051 4.88811C15.8113 4.88811 15.8196 4.88811 15.8278 4.88811L16.8275 4.72255L15.0051 6.50582C13.5227 5.45284 11.7663 4.84251 9.92183 4.84251C7.53754 4.84251 5.29645 5.76992 3.6103 7.48795C0.129901 11.0341 0.129901 16.795 3.6103 20.3412C5.29645 22.0586 7.53754 23 9.92183 23C12.3061 23 14.5465 22.0501 16.2327 20.3335C19.2593 17.2503 19.7385 12.487 17.5043 8.96395L19.543 6.97865V8.21052C19.543 9.18633 20.3148 9.97625 21.2712 9.97625C22.2268 9.97625 23 9.18633 23 8.21052V2.74917C22.9993 2.27845 22.925 1.10691 21.2237 1.00028ZM13.783 17.8354C12.753 18.8863 11.3815 19.4664 9.92183 19.4664C8.4622 19.4664 7.09069 18.8863 6.06 17.8354C3.92908 15.6663 3.92908 12.1341 6.06 9.96362C7.09069 8.91274 8.4622 8.33258 9.92183 8.33258C11.3815 8.33258 12.753 8.91274 13.783 9.96362C15.9139 12.1341 15.9139 15.6663 13.783 17.8354Z" fill="#1698FA"/>
</g>
</svg>
