<svg width="24" height="24" viewBox="0 0 24 24" fill="none" xmlns="http://www.w3.org/2000/svg">
<mask id="mask0_1784_2349" style="mask-type:alpha" maskUnits="userSpaceOnUse" x="0" y="0" width="24" height="24">
<rect width="24" height="24" fill="#D9D9D9"/>
</mask>
<g mask="url(#mask0_1784_2349)">
<path d="M12.8376 7.96225C12.8376 9.08749 11.8762 10.0484 10.7519 10.0484C9.6281 10.0484 8.66667 9.08749 8.66667 7.96273V5.96654C8.66667 4.84178 9.6281 3.88082 10.7524 3.88082C11.8762 3.88082 12.8376 4.84178 12.8376 5.96654V7.96225ZM10.7519 11.9532C12.9281 11.9532 14.7424 10.1389 14.7424 7.96273V5.96654C14.7424 3.78987 12.9281 1.97559 10.7519 1.97559C8.57571 1.97559 6.7619 3.79035 6.7619 5.96654V7.96225C6.7619 10.1394 8.57571 11.9532 10.7524 11.9532H10.7519ZM12.7881 12.9284H7.62238C3.75857 12.9284 2 15.727 2 19.1246V20.2242C2 20.7242 2.2719 21.0237 2.63476 21.0237H14.4352C13.9141 20.437 13.4539 19.7987 13.0619 19.1189H3.90476C3.90571 17.7246 4.26952 16.6499 4.83476 15.9608C5.35619 15.3256 6.19524 14.8332 7.62238 14.8332H12.0433C12.1424 14.1156 12.4062 13.4627 12.7881 12.9284ZM13.9048 15.8646C13.9048 14.3851 14.9619 12.9284 16.5595 12.9284C17.0572 12.9287 17.543 13.0803 17.9524 13.3632C18.3618 13.0803 18.8476 12.9287 19.3452 12.9284C20.9429 12.9284 22 14.3851 22 15.8646C22 17.1708 21.3471 18.3299 20.6319 19.1713C19.9195 20.0094 19.0224 20.6784 18.2962 20.9594C18.075 21.045 17.8298 21.045 17.6086 20.9594C16.8824 20.6784 15.9848 20.0094 15.2729 19.1713C14.5571 18.3299 13.9048 17.1708 13.9048 15.8646ZM16.5595 14.8332C16.2767 14.8332 15.8095 15.1532 15.8095 15.8646C15.8095 16.5423 16.1624 17.2765 16.7238 17.938C17.1371 18.4237 17.5957 18.7908 17.9524 19.0075C18.309 18.7908 18.7676 18.4237 19.181 17.938C19.7419 17.2761 20.0952 16.5423 20.0952 15.8646C20.0952 15.1532 19.6281 14.8332 19.3452 14.8332C19.1595 14.8332 18.9343 14.9399 18.7676 15.2161C18.6828 15.3564 18.5632 15.4726 18.4204 15.5531C18.2776 15.6337 18.1164 15.6761 17.9524 15.6761C17.7884 15.6761 17.6272 15.6337 17.4843 15.5531C17.3415 15.4726 17.2219 15.3564 17.1371 15.2161C16.9705 14.9399 16.7452 14.8332 16.5595 14.8332Z" fill="white"/>
</g>
</svg>
