<svg width="32" height="32" viewBox="0 0 32 32" fill="none" xmlns="http://www.w3.org/2000/svg">
<rect width="32" height="32" rx="16" fill="white" fill-opacity="0.08"/>
<mask id="mask0_1228_1425" style="mask-type:alpha" maskUnits="userSpaceOnUse" x="7" y="7" width="18" height="18">
<rect x="7" y="25" width="18" height="18" transform="rotate(-90 7 25)" fill="#D9D9D9"/>
</mask>
<g mask="url(#mask0_1228_1425)">
<path d="M20.4443 16.2217C20.4444 15.7503 20.6316 15.2982 20.9648 14.9648C21.2983 14.6314 21.7511 14.4443 22.2227 14.4443C22.694 14.4444 23.1462 14.6315 23.4795 14.9648C23.8128 15.2982 23.9999 15.7503 24 16.2217C24 16.6932 23.8129 17.1461 23.4795 17.4795C23.1462 17.8128 22.694 17.9999 22.2227 18C21.7511 18 21.2983 17.8129 20.9648 17.4795C20.6314 17.1461 20.4443 16.6932 20.4443 16.2217ZM14.2227 16.2217C14.2228 15.7503 14.4098 15.2982 14.7432 14.9648C15.0765 14.6315 15.5286 14.4444 16 14.4443C16.4714 14.4443 16.9234 14.6316 17.2568 14.9648C17.5902 15.2982 17.7782 15.7503 17.7783 16.2217C17.7783 16.6932 17.5903 17.1461 17.2568 17.4795C16.9234 17.8127 16.4714 18 16 18C15.5286 18 15.0765 17.8128 14.7432 17.4795C14.4097 17.1461 14.2227 16.6932 14.2227 16.2217ZM8.00098 16.2217C7.99523 15.9847 8.03639 15.7489 8.12305 15.5283C8.20976 15.3076 8.34025 15.1062 8.50586 14.9365C8.67142 14.7669 8.86949 14.6321 9.08789 14.54C9.30634 14.448 9.54128 14.4004 9.77832 14.4004C10.0154 14.4004 10.2503 14.448 10.4687 14.54C10.6872 14.6321 10.8852 14.7669 11.0508 14.9365C11.2164 15.1062 11.3459 15.3077 11.4326 15.5283C11.5193 15.7489 11.5614 15.9847 11.5557 16.2217C11.5443 16.6855 11.3516 17.1271 11.0195 17.4512C10.6875 17.775 10.2421 17.956 9.77832 17.9561C9.31433 17.9561 8.86821 17.7752 8.53613 17.4512C8.20408 17.1271 8.01234 16.6855 8.00098 16.2217Z" fill="white"/>
</g>
</svg>
